<svg width="110" height="328" viewBox="0 0 110 328" fill="none" xmlns="http://www.w3.org/2000/svg">
<g filter="url(#filter0_d_557_48)">
<path d="M82.5784 47.8541L84.4245 48.3875C93.7707 51.0551 95.9637 59.742 94.6158 70.485C94.6613 72.2196 94.9384 73.898 95.4472 75.5203C102.323 92.3915 98.7312 93.4066 102.793 107.656C102.849 107.83 102.848 107.946 102.847 108.119C104.332 110.673 103.594 133.214 102.281 147.194C102.337 147.484 102.335 147.715 102.275 148.004C101.719 153.087 101.608 152.508 102.231 154.247C102.855 155.985 105.277 165.021 105.331 165.542C105.441 166.352 105.435 167.161 105.314 167.912C104.833 170.452 104.349 173.57 103.306 173.852C102.717 175.408 101.785 176.442 101.205 176.727C99.8047 178.509 99.3923 179.605 98.8159 179.37C98.2395 179.134 98.0131 178.439 98.2485 177.863C98.2485 177.863 98.2485 177.863 98.2489 177.805C98.4854 177.055 98.1923 177.631 97.7237 178.495C97.1383 179.531 96.6102 180.626 96.2039 180.854C94.5345 179.86 95.648 177.729 96.6422 176.117C97.2268 175.196 96.3515 176.346 95.2987 178.073C94.3627 179.627 93.428 181.008 93.198 180.833C91.012 179.314 93.8191 174.767 94.2852 174.25C94.2381 172.747 94.2483 171.302 94.3168 169.799C93.8613 168.813 93.5263 167.134 93.3127 164.647C93.0745 165.628 92.7211 166.551 92.3677 167.473C91.8434 168.047 93.2525 173.145 89.3217 173.117C89.3356 171.151 89.3548 168.434 89.3679 166.585C89.3786 165.082 89.8685 161.212 89.8791 159.709C89.8898 158.206 93.2704 154.299 93.445 154.127C93.5774 151.757 93.479 149.329 93.2646 146.957C93.265 146.899 93.2658 146.784 93.3241 146.726C92.6127 141.056 90.8617 135.263 89.6731 131.67C88.4846 128.077 86.3375 121.067 86.7774 116.099C86.7208 115.925 86.6646 115.693 86.7237 115.52C86.6769 113.959 86.8618 112.342 87.3349 110.842C82.8223 103.179 80.3402 94.4903 80.2299 85.5869C78.7983 91.8202 74.5789 99.8836 74.5449 104.681C74.5039 110.462 76.2054 115.099 76.1783 118.914C76.162 121.226 75.5031 124.459 74.2011 128.728C76.4806 133.369 85.8605 155.749 87.2886 174.49C88.6634 192.594 88.9242 204.736 86.9867 217.093C91.2243 222.788 92.8909 240.49 89.8655 259.545C88.7168 266.648 90.1104 282.093 91.3842 289.964C92.6581 297.835 83.9289 297.831 80.8815 295.497C79.1568 294.155 76.4103 290.147 77.6435 287.439C77.5693 281.599 75.73 263.781 71.196 250.973C68.8165 244.135 69.0107 233.037 69.3428 226.969C69.2874 226.622 69.1742 226.274 69.1189 225.927C68.4486 222.627 68.8606 221.589 68.9319 219.682C67.0603 214.582 62.1513 205.76 60.3563 198.001C58.8423 191.4 57.4499 183.932 56.0638 175.598L54.619 175.53C54.0832 177.723 53.6626 179.975 53.3571 182.285C52.9152 187.542 53.5467 196.334 45.458 220.152C45.4343 223.504 46.4719 223.917 46.0386 227.96C45.9144 229.173 45.7328 230.328 45.4351 231.54C47.1181 238.778 48.7663 250.93 43.4281 261.876C39.9077 269.192 37.8694 279.468 39.0436 285.084C40.5281 287.696 39.7923 293.645 38.2209 295.137C35.3699 297.718 24.4564 295.964 25.8437 287.823C27.231 279.682 27.3182 267.369 25.0744 257.699C23.054 249.129 23.8201 238.902 25.6899 227.932C25.6928 227.527 25.6957 227.122 25.699 226.66C25.7133 224.637 25.7842 222.787 25.9121 221.054C24.9597 216.769 23.7134 213.176 22.4801 199.582C21.8355 192.641 22.6858 186.866 22.5586 180.332C23.1714 159.121 27.1086 133.77 29.0519 128.755L29.1675 128.755C28.8952 126.383 28.739 123.954 28.698 121.584C28.7189 118.636 30.556 112.29 31.1758 106.398C31.6694 102.008 29.1591 97.3072 27.5179 92.324C26.8956 98.5629 23.7868 104.9 19.7617 110.016C24.076 129.355 16.5588 137.8 14.3692 153.104C14.6562 153.395 14.8854 153.686 15.1146 153.976C17.5773 157.231 17.9516 161.512 16.354 166.703C17.151 168.443 17.7221 169.43 18.0665 169.779C19.0435 170.595 19.8564 170.081 20.127 172.684C19.262 172.389 18.2817 172.035 17.4171 171.682C19.3153 173.025 19.8839 174.359 19.2395 175.568L16.7062 174.105C17.338 174.688 17.7373 175.442 17.8472 176.252C17.7837 177.061 17.5471 177.811 17.1375 178.502L14.7916 175.074L11.7111 169.272L13.4666 174.429C14.6691 176.056 15.2947 177.506 15.4021 178.663C15.5095 179.82 15.1 180.511 14.0587 180.619C11.9973 177.83 10.7378 176.086 10.2795 175.505C9.0807 173.358 8.05575 171.154 7.20503 168.835C6.80981 167.503 6.71713 164.265 6.92782 159.006C6.87739 157.965 6.88517 156.866 7.00816 155.827C7.99777 146.7 3.18171 132.907 4.67023 118.639C4.92111 115.866 5.57664 113.095 6.57778 110.501C6.8258 108.133 8.23527 105.021 8.13399 102.997C7.24216 82.0059 12.1857 85.9719 11.9675 75.9694C11.7493 65.9668 11.1605 59.3146 15.0102 54.4859C17.9853 50.6916 24.7064 48.5424 28.8127 48.2825C29.6265 47.6523 30.5551 47.1386 31.4833 46.6827C34.2092 45.4302 37.0499 44.2942 39.8898 43.2737C43.3323 38.789 42.7042 37.6862 42.7603 29.7667C42.8173 21.7316 63.0241 25.459 62.9999 28.8696C62.9774 32.0489 61.3654 39.2636 65.3881 42.6451" fill="url(#paint0_linear_557_48)"/>
<path d="M97.0985 168.836L97.6992 173.812" stroke="#F29353" stroke-width="1.14" stroke-linecap="round"/>
<path d="M99.9887 168.857L100.178 174.812L99.359 176.136" stroke="#F29353" stroke-width="1.14" stroke-linecap="round"/>
<path d="M103.354 167.146L103.197 172.926L102.081 175.462" stroke="#F29353" stroke-width="1.14" stroke-linecap="round"/>
<path d="M93.9376 166.212L93.3206 163.549L92.6691 165.741" stroke="#F29353" stroke-width="1.14" stroke-linecap="round"/>
<path d="M94.0366 152.223L93.3848 154.473" stroke="#F29353" stroke-width="1.14" stroke-linecap="round"/>
<path d="M81.2672 77.9056C81.0232 79.696 81.6423 82.0705 83.2408 84.9145" stroke="#EE8B48" stroke-width="1.14" stroke-linecap="round"/>
<path d="M90.5553 105.084C89.3877 106.694 88.5079 108.48 87.9742 110.384" stroke="#F29353" stroke-width="1.14" stroke-linecap="round"/>
<path d="M30.0549 223.8C29.2214 227.205 29.6068 229.925 31.1528 232.017C32.6989 234.109 33.4824 237.756 33.3877 242.959" stroke="#F08944" stroke-width="1.14" stroke-linecap="round"/>
<path d="M41.9077 223.537C42.8044 227.532 42.5527 230.421 41.0956 232.087" stroke="#F08944" stroke-width="1.14" stroke-linecap="round"/>
<path d="M30.2959 83.7301C27.3604 81.9172 26.0641 77.2254 25.1396 77.1611C24.2151 77.0967 22.9233 79.9202 21.0604 81.7569" stroke="#EE8B48" stroke-width="1.14" stroke-linecap="round"/>
<path d="M26.0436 80.1157C26.0793 83.2377 25.4217 86.2969 24.1877 89.1208" stroke="#EE8B48" stroke-width="1.14" stroke-linecap="round"/>
<path d="M26.6853 79.3109C28.9058 84.1248 32.8846 85.5404 39.7635 85.5892C46.6425 85.6379 51.8504 84.9233 52.2935 79.4924" stroke="#EE8B48" stroke-width="1.14" stroke-linecap="round"/>
<path d="M75.9629 84.0536C78.9237 82.2825 80.2864 77.6096 81.2117 77.5584C82.137 77.5071 83.3887 80.3486 85.2254 82.2115" stroke="#EE8B48" stroke-width="1.14" stroke-linecap="round"/>
<path d="M79.6358 79.6861C77.3474 84.4681 73.3489 85.8272 66.4699 85.7784C59.591 85.7297 54.3937 84.9414 54.0276 79.5047" stroke="#EE8B48" stroke-width="1.14" stroke-linecap="round"/>
<path d="M63.8356 41.4778C64.0553 43.0981 64.4489 44.6617 65.0159 46.2266" stroke="#F89451" stroke-width="1.14" stroke-linecap="round"/>
<path d="M41.4601 41.9552C41.3929 43.2843 41.1522 44.6122 40.7964 45.8815" stroke="#F89451" stroke-width="1.14" stroke-linecap="round"/>
<path d="M71.2803 222.763C71.1402 226.23 71.8732 228.837 73.5377 230.525C75.2022 232.213 76.3924 235.575 77.2235 240.668" stroke="#F08944" stroke-width="1.14" stroke-linecap="round"/>
<path d="M83.0688 223.424C83.56 227.532 83.02 230.303 81.3904 231.853" stroke="#F08944" stroke-width="1.14" stroke-linecap="round"/>
<path fill-rule="evenodd" clip-rule="evenodd" d="M18.9054 312.458C19.5774 315.527 22.164 317.627 26.0886 318.521C30.0133 319.416 37.0678 319.177 39.2746 317.748C41.4815 316.318 45.7956 311.204 39.7837 303.01C41.4957 297.993 44.1815 294.254 39.6565 288.326C37.6026 292.647 31.259 290.463 26.5898 288.58C25.4944 288.167 23.1162 297.458 22.3332 301.904C19.6319 307.839 17.9555 307.827 18.9054 312.458Z" fill="#C6C6C6"/>
<path fill-rule="evenodd" clip-rule="evenodd" d="M29.1416 287.442C30.9413 286.356 33.2528 286.488 34.9197 287.829C35.3797 288.18 36.1214 289.572 37.28 289.234C39.0757 288.726 38.9153 286.875 39.5557 286.244C40.1961 285.612 41.9541 290.423 40.3036 294.92C38.653 299.418 42.0149 306.321 42.0149 306.321C42.0149 306.321 43.6311 314.83 37.6171 315.077C35.8821 315.18 35.9481 314.024 30.9747 314.278C27.9676 314.43 28.5907 316.227 24.0933 314.576C19.5959 312.926 18.4664 309.16 19.347 307.259C20.2862 305.242 22.045 301.786 23.0527 298.267C23.2093 292.487 24.2776 288.563 26.1422 286.495C26.1918 287.652 26.9962 288.351 27.4008 288.354C28.6721 288.421 28.6766 287.785 29.1416 287.442Z" fill="black"/>
<path fill-rule="evenodd" clip-rule="evenodd" d="M26.904 293.207L34.1113 295.859L28.3057 299.344L34.4722 302.047L27.5321 302.461L34.2627 298.982L28.1544 296.222L35.001 292.686L26.904 293.207Z" stroke="white" stroke-width="1.07" stroke-linecap="round" stroke-linejoin="round"/>
<path fill-rule="evenodd" clip-rule="evenodd" d="M98.5628 313.023C97.9626 316.14 95.404 318.261 91.524 319.216C87.644 320.172 80.5338 320.121 78.2892 318.718C76.0442 317.372 71.6287 312.312 77.5261 304.029C75.7115 299.045 72.9626 295.383 77.3411 289.344C79.5075 293.637 85.7673 291.312 90.4062 289.321C91.5078 288.866 94.0435 298.134 94.9373 302.534C97.7858 308.45 99.4626 308.404 98.5628 313.023Z" fill="#C6C6C6"/>
<path fill-rule="evenodd" clip-rule="evenodd" d="M87.8705 288.205C86.028 287.151 83.7141 287.366 82.0857 288.742C81.6204 289.143 80.9173 290.468 79.7632 290.171C77.9745 289.695 78.6243 287.735 77.9925 287.152C77.3608 286.569 75.1293 291.467 76.832 295.931C78.5924 300.395 75.3635 307.367 75.3635 307.367C75.3635 307.367 73.9155 315.912 79.9848 316.013C81.719 316.025 81.669 314.926 86.5817 315.077C89.5872 315.156 88.996 317.002 93.5176 315.242C98.0392 313.482 98.9912 309.673 98.0794 307.817C97.111 305.786 95.2854 302.363 94.1538 298.886C93.8479 293.103 92.7196 289.164 90.826 287.185C90.76 288.341 90.0032 289.087 89.6563 289.084C88.3838 289.191 88.3305 288.555 87.8705 288.205Z" fill="black"/>
<path fill-rule="evenodd" clip-rule="evenodd" d="M90.1999 293.944L83.0696 296.726L88.8843 300.121L82.7941 302.968L89.7871 303.249L82.9319 299.847L89.022 297L82.109 293.598L90.1999 293.944Z" stroke="white" stroke-width="1.07" stroke-linecap="round" stroke-linejoin="round"/>
<g opacity="0.42" filter="url(#filter1_f_557_48)">
<path fill-rule="evenodd" clip-rule="evenodd" d="M43.6701 31.9121C43.8189 35.3817 44.5074 44.2892 48.1348 46.3382C51.7623 48.3872 56.0404 48.3597 58.2509 46.4099C60.4615 44.46 62.6478 37.7696 62.7528 31.1223C63.3628 26.6175 42.1983 27.5081 43.6701 31.9121Z" fill="#915D2E" fill-opacity="0.7"/>
</g>
<path fill-rule="evenodd" clip-rule="evenodd" d="M41.6387 33.0539C41.8425 36.9285 46.4306 42.1061 48.3271 43.6803C50.2237 45.2546 55.1909 45.8679 57.4027 43.7447C59.6145 41.6214 61.5975 39.1496 62.0702 37.7077C62.5429 36.2659 64.0106 33.0968 64.2484 32.1735C65.7313 35.0167 71.4294 22.2234 66.4515 23.113C66.4757 19.7025 66.8815 11.3808 62.2832 7.64844C57.6849 3.91607 51.6776 3.2376 45.3558 6.14108C39.034 9.04456 37.8336 15.2795 39.2198 23.6138C40.3739 23.911 34.8909 22.6582 36.9896 28.3384C38.4139 31.2967 38.395 33.9558 41.6387 33.0539Z" fill="#FFD4AB"/>
<path d="M52.2021 43.4188L53.5317 43.4282" stroke="#EA833E" stroke-width="1.14" stroke-linecap="round"/>
<path d="M67.1309 25.1412C65.0974 26.572 64.0491 27.663 64.0434 28.4723" stroke="#EA833E" stroke-width="1.14" stroke-linecap="round"/>
<path d="M65.614 27.096L65.6042 28.4833L64.0278 30.6689" stroke="#EA833E" stroke-width="1.14" stroke-linecap="round"/>
<path d="M37.7587 25.858C38.9123 26.2131 39.8307 27.1445 40.1693 28.3031" stroke="#EA833E" stroke-width="1.14" stroke-linecap="round"/>
<path d="M38.9075 26.9067L39.1805 29.1632L40.6163 30.503" stroke="#EA833E" stroke-width="1.14" stroke-linecap="round"/>
<path opacity="0.75" fill-rule="evenodd" clip-rule="evenodd" d="M74.1105 128.882C66.1239 134.125 32.6282 133.237 28.8575 128.828C26.4363 119.199 30.3231 113.406 30.6994 105.465C30.877 101.718 28.3927 98.3513 27.6263 92.7623C26.9331 89.7336 26.5939 87.1683 26.6088 85.0662C30.3776 81.0787 32.2917 74.8825 32.3512 66.4777C32.4373 54.3263 30.1475 51.3459 28.7869 48.149C28.4688 47.5671 30.1147 46.609 31.9345 45.8905C34.0332 45.0619 36.2641 43.8662 36.5613 44.3388C36.5536 45.4313 40.823 61.1976 52.5539 61.2808C64.2848 61.3639 67.9605 58.6998 71.2101 44.4748C71.0792 44.0649 72.6311 44.4195 75.2281 45.133C77.825 45.8466 79.8076 46.5231 79.2873 46.8462C78.478 47.1761 78.1551 49.5458 76.1205 64.5696C74.086 79.5934 78.2675 79.7111 80.5989 82.4736C80.6499 84.7334 80.3037 87.3535 79.5604 90.334C75.7601 98.9299 74.4267 105.823 75.5603 111.014C77.2606 118.8 77.4762 125.695 74.1105 128.882Z" fill="#FFFAF9"/>
<path opacity="0.85" fill-rule="evenodd" clip-rule="evenodd" d="M53.9096 184.029L54.475 178.54L55.9327 178.528L56.4637 184.047C68.053 184.171 76.2147 183.556 80.9487 182.202C84.6903 181.132 87.0637 178.247 88.0691 173.546C85.5936 159.548 83.2737 149.449 81.1095 143.251C78.9957 137.197 75.6462 128.738 74.2011 128.728C52.6992 134.577 32.7553 130.863 29.0519 128.755C27.8721 128.665 27.3417 132.709 26.5378 136.223C25.2903 141.677 22.5568 165.426 22.1141 174.984C22.0648 181.945 32.6633 184.96 53.9096 184.029Z" fill="black"/>
<path d="M66.0206 23.9011C66.1963 22.4058 66.604 21.3794 65.7289 18.1319C64.6473 15.4017 62.2615 13.5084 62.4577 10.212C60.5988 8.84112 56.5889 11.4505 52.5754 11.9815C48.562 12.5125 40.6435 10.4888 41.2269 16.5327C42.1019 21.0413 40.8371 21.3453 41.2269 25L39.7686 24.4506C38.6019 23.0769 36.3124 16.2131 37.7579 8.829C39.2035 1.44489 56.0042 -5.81613 63.8044 7.08986C71.5083 4.94924 67.6599 22.2453 67.4791 23.9011H66.0206Z" fill="black"/>
</g>
<defs>
<filter id="filter0_d_557_48" x="0.382324" y="0" width="109.027" height="327.864" filterUnits="userSpaceOnUse" color-interpolation-filters="sRGB">
<feFlood flood-opacity="0" result="BackgroundImageFix"/>
<feColorMatrix in="SourceAlpha" type="matrix" values="0 0 0 0 0 0 0 0 0 0 0 0 0 0 0 0 0 0 127 0" result="hardAlpha"/>
<feOffset dy="4"/>
<feGaussianBlur stdDeviation="2"/>
<feComposite in2="hardAlpha" operator="out"/>
<feColorMatrix type="matrix" values="0 0 0 0 0 0 0 0 0 0 0 0 0 0 0 0 0 0 0.25 0"/>
<feBlend mode="normal" in2="BackgroundImageFix" result="effect1_dropShadow_557_48"/>
<feBlend mode="normal" in="SourceGraphic" in2="effect1_dropShadow_557_48" result="shape"/>
</filter>
<filter id="filter1_f_557_48" x="39.5967" y="24.1469" width="27.1691" height="27.7267" filterUnits="userSpaceOnUse" color-interpolation-filters="sRGB">
<feFlood flood-opacity="0" result="BackgroundImageFix"/>
<feBlend mode="normal" in="SourceGraphic" in2="BackgroundImageFix" result="shape"/>
<feGaussianBlur stdDeviation="2" result="effect1_foregroundBlur_557_48"/>
</filter>
<linearGradient id="paint0_linear_557_48" x1="55.1538" y1="-16.0261" x2="67.5877" y2="369.324" gradientUnits="userSpaceOnUse">
<stop stop-color="#FFD6A7"/>
<stop offset="0.49" stop-color="#FFCFB0"/>
<stop offset="1" stop-color="#FFB783"/>
</linearGradient>
</defs>
</svg>
